PathFileType  4	(X/Y/Z) C:\Users\antoi\Documents\MyRepositories\mobilecap\ResultsAnalysis
DataRate	CameraRate	NumFrames	NumMarkers	Units	OrigDataRate	OrigDataStartFrame	OrigNumFrames
100.0	100.0	6	51	mm	100.0	60	158
Frame#	Time	r_knee			r_shank_antsup			r_ankle			r_calc			r_5meta			r_toe			L_knee			L_shank_antsup			L_ankle			L_calc			L_5meta			L_toe			r_sh2			r_sh3			r_sh4			L_sh2			L_sh3			r_thigh1			r_thigh2			r_thigh3			r_thigh4			r_thigh5			L_thigh1			L_thigh2			L_thigh3			L_thigh4			r.ASIS			r.PSIS			L.ASIS			L.PSIS			C7			R_Shoulder			L_Shoulder			R_Sternum			L_Sternum			R_humerus			R_elbow_med			R_elbow_lat			R_forearm			R_wrist_radius			R_wrist_ulna			L_humerus			L_elbow_med			L_elbow_lat			L_forearm			L_wrist_radius			L_wrist_ulna			R_HJC			L_HJC			R_HJC_reg			L_HJC_reg			
		X1	Y1	Z1	X2	Y2	Z2	X3	Y3	Z3	X4	Y4	Z4	X5	Y5	Z5	X6	Y6	Z6	X7	Y7	Z7	X8	Y8	Z8	X9	Y9	Z9	X10	Y10	Z10	X11	Y11	Z11	X12	Y12	Z12	X13	Y13	Z13	X14	Y14	Z14	X15	Y15	Z15	X16	Y16	Z16	X17	Y17	Z17	X18	Y18	Z18	X19	Y19	Z19	X20	Y20	Z20	X21	Y21	Z21	X22	Y22	Z22	X23	Y23	Z23	X24	Y24	Z24	X25	Y25	Z25	X26	Y26	Z26	X27	Y27	Z27	X28	Y28	Z28	X29	Y29	Z29	X30	Y30	Z30	X31	Y31	Z31	X32	Y32	Z32	X33	Y33	Z33	X34	Y34	Z34	X35	Y35	Z35	X36	Y36	Z36	X37	Y37	Z37	X38	Y38	Z38	X39	Y39	Z39	X40	Y40	Z40	X41	Y41	Z41	X42	Y42	Z42	X43	Y43	Z43	X44	Y44	Z44	X45	Y45	Z45	X46	Y46	Z46	X47	Y47	Z47	X48	Y48	Z48	X49	Y49	Z49	X50	Y50	Z50	X51	Y51	Z51	

60	0.59000000	388.13416	585.71243	-69.15863	364.47012	433.02610	-87.66329	178.33839	114.26019	-123.31649	120.01580	100.03068	-188.62395	305.97384	37.55609	-98.08683	349.87601	59.61966	-146.53447	676.42093	606.17319	-343.02738	787.68768	440.68093	-320.50648	820.62623	127.53143	-305.98375	784.79599	79.65328	-234.22080	979.84682	99.06192	-346.50305	1007.94276	152.22127	-297.54420	324.46710	328.97427	-104.17674	303.11059	447.32115	-45.43425	258.07412	343.45082	-54.23488	716.16997	421.10433	-368.82180	747.78783	308.44875	-347.79449	494.69861	862.26380	-18.90704	489.00399	751.12781	-30.25770	422.71285	733.11019	-23.10790	380.53609	873.87251	-35.19476	371.09020	756.45096	-40.06345	624.14725	898.09878	-364.30316	669.95436	772.05192	-352.84974	521.11888	864.53514	-374.43994	570.44028	736.14448	-368.61954	581.72121	1144.93040	-57.85583	388.03066	1173.22051	-136.44859	555.46277	1143.57424	-333.56941	379.00747	1171.18182	-228.62219	434.99955	1662.19685	-174.87367	510.46700	1608.98216	-6.00853	493.56180	1641.12547	-355.94691	578.41807	1575.75963	-155.18129	578.98219	1580.06626	-211.86640	498.37159	1338.28239	62.89772	409.41292	1220.94049	31.53570	423.22390	1244.03689	102.81286	562.61934	1078.55293	114.67392	618.97824	1002.54478	107.39594	590.87501	991.09104	133.86906	483.59286	1347.94892	-424.85397	393.81780	1273.19063	-373.21329	410.28019	1272.06988	-449.57493	499.48547	1087.12998	-486.06256	532.48440	1013.51936	-481.71561	506.03317	1014.14472	-504.45225	502.39964	1048.26667	-92.20649	480.56214	1050.15697	-288.46263	509.26787	1062.60761	-88.90516	491.46361	1058.58397	-270.78821	
61	0.60000000	398.42340	584.87988	-68.98076	372.22833	432.26144	-87.54293	180.19720	116.82842	-123.08597	121.51647	103.81839	-188.31831	306.32628	37.69237	-98.06057	350.57162	59.22208	-146.48289	688.56414	604.91589	-342.06213	797.00180	436.91844	-318.35226	822.84276	123.31515	-303.81767	785.67441	75.72932	-232.49071	981.87459	92.83302	-343.14010	1010.40294	145.21729	-293.62486	330.38243	328.99087	-103.97311	310.98796	447.85060	-45.52750	264.20098	344.73697	-54.13792	725.63628	418.86923	-367.54083	754.54316	305.59648	-346.31167	505.39137	861.33503	-18.79389	499.52452	750.20975	-29.92821	433.31352	732.33837	-23.24307	391.43688	873.13840	-35.78749	381.77660	755.72805	-40.55645	636.71850	896.83974	-364.83072	682.23239	770.72575	-352.66820	533.55873	863.35239	-373.99374	582.65532	734.90350	-367.90764	593.23736	1143.99340	-57.85639	399.79135	1171.91842	-137.01125	567.72399	1142.34976	-333.80183	390.96461	1169.76706	-229.10508	446.32060	1660.99499	-176.90564	521.88037	1608.44757	-7.76198	505.00478	1639.26639	-357.87410	589.85742	1574.68388	-156.80238	590.41100	1578.79257	-213.52152	508.63954	1337.94872	61.74698	419.25002	1220.96671	30.47894	433.09100	1244.11459	101.74397	571.19314	1077.50900	113.91850	626.98438	1000.97494	106.70566	598.83897	989.83629	133.24381	495.23070	1345.80215	-425.57346	405.55221	1271.16888	-373.58740	421.88800	1269.82592	-449.96647	510.46455	1084.59318	-486.16968	543.08903	1010.77833	-481.76676	516.73721	1011.46766	-504.42012	514.21023	1047.17112	-92.36874	492.83925	1048.85922	-288.67698	521.05450	1061.52052	-88.99405	503.61062	1057.26771	-271.01474	
62	0.61000000	409.10385	584.01637	-68.72497	380.34334	431.54348	-87.30647	182.26209	119.67780	-122.72574	123.25490	108.01616	-187.91193	306.69947	37.84216	-98.00016	351.30846	58.78001	-146.54539	700.46545	603.47696	-341.07117	805.81371	432.96034	-316.18211	824.80561	119.19900	-301.65110	786.18799	72.13484	-230.76683	983.57817	86.55806	-339.54157	1012.55727	138.05236	-289.37895	336.56181	329.10549	-103.65444	319.19740	448.50181	-45.56043	270.61630	346.22292	-53.96122	734.76155	416.48738	-366.24812	760.99234	302.67896	-344.77120	516.37004	860.45330	-18.62847	510.36418	749.31478	-29.49596	444.19147	731.56880	-23.29999	402.61859	872.39896	-36.41187	392.76306	755.01182	-41.00043	649.53589	895.49176	-365.39921	694.55366	769.23154	-352.50403	546.16181	862.24927	-373.51336	594.89807	733.64952	-367.35235	604.99665	1143.10188	-57.84654	411.81034	1170.66092	-137.66925	580.32408	1141.20174	-334.05465	403.22766	1168.41534	-229.70473	457.67558	1659.84443	-178.99734	533.32507	1608.00457	-9.57801	516.46257	1637.46501	-359.87180	601.37120	1573.73116	-158.48195	601.89862	1577.62601	-215.23938	519.00271	1337.69224	60.53375	429.14065	1221.11334	29.35351	442.95618	1244.31860	100.61744	579.64548	1076.47497	113.14568	634.78826	999.38002	106.01530	606.56958	988.56625	132.61711	506.80906	1343.72922	-426.38290	417.31117	1269.20486	-373.95365	433.43487	1267.64633	-450.37516	521.43651	1082.13346	-486.28820	553.62011	1008.06757	-481.84044	527.47373	1008.85565	-504.39451	526.26599	1046.12318	-92.58688	505.45106	1047.63031	-288.95525	533.08379	1060.45820	-89.12849	516.09671	1056.01286	-271.31209	
63	0.62000000	420.22513	583.12106	-68.39386	388.87498	430.90772	-86.94531	184.58532	122.84459	-122.21952	125.29146	112.67139	-187.38951	307.10955	38.00838	-97.90890	352.05869	58.31633	-146.74824	711.93186	601.83734	-340.06607	814.23246	428.99765	-314.03379	827.11838	115.38989	-299.53573	786.89783	69.18377	-229.07984	985.41459	80.36400	-335.81355	1014.94701	130.81799	-284.91260	343.04800	329.33749	-103.21453	327.82928	449.27536	-45.51385	277.35567	347.95036	-53.69999	743.64137	414.03431	-364.90209	767.43614	299.81369	-343.16148	527.67250	859.61667	-18.40597	521.56983	748.43877	-28.96852	455.36880	730.81459	-23.25412	414.11424	871.64597	-37.05057	404.09283	754.30153	-41.37252	662.49645	894.03625	-365.96303	706.77419	767.53291	-352.33812	558.80340	861.24679	-372.99424	607.01575	732.37876	-366.96533	617.02634	1142.25918	-57.84154	424.09646	1169.46462	-138.41460	593.24146	1140.13916	-334.33540	415.78430	1167.16513	-230.42596	469.05452	1658.76337	-181.14945	544.77362	1607.66537	-11.44962	527.93933	1635.72652	-361.93573	612.94634	1572.91241	-160.21093	613.44437	1576.58195	-217.01536	529.43135	1337.52821	59.25956	439.06541	1221.37901	28.16101	452.82390	1244.64371	99.42699	587.97914	1075.47892	112.36001	642.37447	997.77627	105.32994	614.07516	987.31201	132.00518	518.33622	1341.73276	-427.28985	429.08287	1267.31027	-374.32678	444.93401	1265.53052	-450.80865	532.41033	1079.75156	-486.41941	564.10088	1005.38886	-481.93210	538.24718	1006.31345	-504.37790	538.56794	1045.13442	-92.87174	518.37345	1046.48887	-289.30543	545.38271	1059.40027	-89.32795	528.90958	1054.84318	-271.69496	
64	0.63000000	431.86137	582.20314	-67.98810	397.90127	430.39536	-86.44591	187.24782	126.36115	-121.56612	127.70123	117.84419	-186.74036	307.58058	38.19335	-97.79630	352.80711	57.84953	-147.07952	722.84724	600.04200	-339.07311	822.48139	425.25671	-311.91973	830.25387	112.04842	-297.54300	788.22377	67.12119	-227.49648	987.71600	74.27089	-332.11321	1017.99903	123.50961	-280.40549	349.90269	329.71268	-102.64300	336.97956	450.18006	-45.37391	284.46198	349.96850	-53.35135	752.44886	411.63299	-363.48392	774.19508	297.13563	-341.50986	539.33994	858.83180	-18.12989	533.20288	747.59070	-28.36088	466.89719	730.08629	-23.10051	425.96848	870.86899	-37.69684	415.82408	753.59474	-41.66331	675.47179	892.49496	-366.46328	718.75865	765.64838	-352.14141	571.36031	860.37403	-372.44661	618.85858	731.11126	-366.71125	629.35026	1141.48453	-57.86347	436.65012	1168.35268	-139.22503	606.42639	1139.18791	-334.64833	428.59695	1166.06475	-231.25355	480.45301	1657.77895	-183.35997	556.20907	1607.44348	-13.36663	539.44131	1634.06297	-364.06073	624.56832	1572.24448	-161.98144	625.04835	1575.68533	-218.84385	539.88872	1337.47489	57.92812	449.00119	1221.76049	26.90694	462.70694	1245.08464	98.16605	596.19323	1074.54643	111.56602	649.73632	996.18004	104.65258	621.37227	986.10412	131.41795	529.83280	1339.82178	-428.29419	440.86269	1265.49946	-374.72055	456.40771	1263.48259	-451.27231	543.39777	1077.45167	-486.56304	574.59645	1002.77516	-482.03062	549.05444	1003.84992	-504.36942	551.11556	1044.22886	-93.23019	531.56089	1045.46713	-289.72980	557.98681	1058.33785	-89.60884	542.01191	1053.80036	-272.16637	
65	0.64000000	444.09854	581.28009	-67.49835	407.50788	430.04653	-85.78338	190.35636	130.24815	-120.77904	130.57426	123.60219	-185.95843	308.13982	38.39729	-97.67519	353.56464	57.39715	-147.47928	733.23842	598.20684	-338.13013	830.82062	421.93108	-309.83936	834.38759	109.25682	-295.75157	790.32424	66.04291	-226.10456	990.59293	68.23357	-328.63396	1021.88143	116.09420	-276.10444	357.20201	330.26002	-101.91962	346.73241	451.23681	-45.13032	291.99173	352.32059	-52.91293	761.38089	409.42517	-362.01937	781.50155	294.76654	-339.88468	551.40892	858.11606	-17.81614	545.32736	746.79544	-27.68977	478.85437	729.38959	-22.85693	438.23189	870.05909	-38.35946	428.01729	752.88863	-41.87962	688.34349	890.94398	-366.83960	730.42963	763.66974	-351.87689	583.74698	859.66842	-371.90061	630.34025	729.89875	-366.52403	641.98365	1140.81389	-57.94250	449.45704	1167.35516	-140.06468	619.80510	1138.38971	-334.99437	441.60518	1165.16393	-232.14955	491.87292	1656.92375	-185.62386	567.62567	1607.35513	-15.31753	550.97573	1632.49377	-366.23995	636.22492	1571.75227	-163.78791	636.70701	1574.96770	-220.71793	550.34114	1337.55246	56.54430	458.93255	1222.25696	25.59575	472.61619	1245.64359	96.82059	604.28355	1073.69780	110.76610	656.88461	994.61443	103.98612	628.47734	984.96952	130.85755	541.32991	1338.01259	-429.38734	452.65680	1263.78968	-375.14528	467.88707	1261.51599	-451.76696	554.41196	1075.24296	-486.71833	585.20252	1000.28714	-482.12193	559.88844	1001.48036	-504.36319	563.90637	1043.44246	-93.66341	544.94936	1044.60789	-290.22359	570.92740	1057.28634	-89.98317	555.34500	1052.93915	-272.71615	
